<svg width="24" height="24" fill="none" xmlns="http://www.w3.org/2000/svg"><circle cx="12" cy="12" r="12" fill="#1B1B1B"/><path fill-rule="evenodd" clip-rule="evenodd" d="M6 10.638c0 .12.035.179.054.256.124.499.39.97.708 1.361.451.557 1.004 1.025 1.57 1.447.492.366 1.614 1.192 1.614 1.192s-1.36.897-1.938 1.361c-.348.28-.685.633-.923 1.022-.382.625-.517 1.246-.232 1.957.083.208.21.378.39.51a.528.528 0 0 0 .19.086c.175.042.351.137.527.17h.499c.551-.05 1.054-.272 1.508-.596.709-.506 1.185-1.17 1.39-2.042.15-.634.127-1.617 0-2.298.82-.194 1.816-.306 2.605 0 .46.179.832.55 1.053 1.021.27.575.12 1.083-.403 1.447-.05.034-.105.043-.146.085-.012.016-.022.066-.028.085a.3.3 0 0 0-.005.085c.004.021.057 0 .088 0 .172-.001.311-.074.445-.17.336-.24.58-.595.634-1.021h.01l-.013-.256c-.005-.016.004-.073.003-.085-.072-.62-.392-1.07-.857-1.446a3.096 3.096 0 0 0-1.85-.681c-.546-.025-1.529.147-2.043.34 0 0-1.346-1.072-1.798-1.447-.4-.332-.787-.667-1.084-1.106a2.103 2.103 0 0 1-.376-1.106 2.703 2.703 0 0 1 .376-1.447c.324-.56.765-.955 1.251-1.362.514-.43 1.07-.858 1.646-1.191a12.041 12.041 0 0 1 2.524-1.107c.911-.28 1.835-.452 2.789-.34.374.044.74.15 1.073.34.256.145.467.299.564.596.097.292.093.639.026.936-.136.602-.454 1.089-.854 1.532-.657.726-1.458 1.205-2.36 1.532a6.283 6.283 0 0 1-1.606.34 2.931 2.931 0 0 1-1.312-.17 1.712 1.712 0 0 1-.724-.51c-.035-.043-.08-.125-.145-.086-.064.04-.075.106-.054.17.036.107.069.246.125.341.14.24.347.447.573.596.434.286.92.318 1.424.34a6.894 6.894 0 0 0 2.245-.255c1.049-.303 1.961-.858 2.693-1.702.61-.703 1.045-1.51 1.138-2.468.046-.468-.003-.936-.214-1.362-.23-.462-.594-.785-1.03-1.021A4.205 4.205 0 0 0 15.713 4h-.71c-.856 0-1.684.207-2.489.51-.61.23-1.207.552-1.787.852-1.263.653-2.44 1.384-3.406 2.468-.482.54-.889 1.17-1.123 1.872-.07.21-.133.466-.184.681m4.578 6.128c-.054.759-.387 1.374-.93 1.872-.305.28-.657.44-1.065.51-.148.026-.298.064-.442 0-.204-.09-.251-.31-.255-.51-.006-.32.102-.576.25-.851.194-.358.477-.681.78-.936.477-.402.994-.7 1.524-1.021h.04c.081.313.121.62.098.936Z" fill="#fff"/></svg>