<svg width="24" height="24" fill="none" xmlns="http://www.w3.org/2000/svg"><circle cx="12" cy="12" r="12" fill="#1B1B1B"/><path d="M12.5 7c-2.267 0-3.683 1-4.25 3 .85-1 1.842-1.375 2.975-1.125.647.142 1.109.556 1.621 1.015.833.746 1.798 1.61 3.904 1.61 2.267 0 3.683-1 4.25-3-.85 1-1.842 1.375-2.975 1.125-.647-.142-1.108-.556-1.621-1.015C15.57 7.864 14.607 7 12.5 7Zm-4.25 4.5c-2.267 0-3.683 1-4.25 3 .85-1 1.842-1.375 2.975-1.125.647.143 1.109.556 1.621 1.015.833.746 1.798 1.61 3.904 1.61 2.267 0 3.683-1 4.25-3-.85 1-1.842 1.375-2.975 1.125-.647-.142-1.109-.556-1.621-1.015-.833-.746-1.797-1.61-3.904-1.61Z" fill="#fff"/></svg>