<svg width="24" height="24" fill="none" xmlns="http://www.w3.org/2000/svg"><circle cx="12" cy="12" r="12" fill="#1B1B1B"/><path d="M12 13.627a1.376 1.376 0 1 0 0-2.753 1.376 1.376 0 0 0 0 2.753Z" fill="#fff"/><path d="M17.228 9.98a13.45 13.45 0 0 0-.833-.277c.072-.29.133-.58.18-.857.255-1.594-.023-2.717-.796-3.151a1.5 1.5 0 0 0-.773-.193c-.845 0-1.92.627-3.006 1.678-1.087-1.05-2.161-1.678-3.006-1.678a1.5 1.5 0 0 0-.773.193c-.773.446-1.05 1.57-.797 3.151.048.278.109.567.181.857a8.42 8.42 0 0 0-.833.278c-1.51.58-2.33 1.376-2.33 2.27 0 .893.833 1.69 2.33 2.27.266.096.543.193.833.277-.072.29-.133.58-.181.858-.254 1.593.024 2.716.797 3.15a1.5 1.5 0 0 0 .773.194c.857 0 1.931-.628 3.006-1.678C13.087 18.372 14.161 19 15.006 19c.29 0 .544-.06.773-.193.773-.447 1.05-1.57.797-3.151a12.143 12.143 0 0 0-.181-.858c.29-.084.567-.169.833-.277 1.51-.58 2.33-1.377 2.33-2.27 0-.894-.82-1.69-2.33-2.27ZM15.44 6.299c.495.29.664 1.184.459 2.451-.036.254-.097.52-.17.797a14.34 14.34 0 0 0-1.991-.302c-.41-.58-.834-1.098-1.256-1.57.893-.88 1.799-1.484 2.535-1.484.157 0 .302.036.423.108Zm-1.352 7.16c-.218.386-.471.773-.737 1.16a16.63 16.63 0 0 1-1.352.047c-.47 0-.918-.011-1.352-.048a15.208 15.208 0 0 1-.725-1.159c-.23-.398-.446-.809-.64-1.207.194-.399.41-.81.64-1.208.218-.386.471-.772.737-1.159.447-.036.893-.048 1.352-.048.47 0 .918.012 1.352.048.266.387.507.773.725 1.16.23.398.447.808.64 1.207a39.6 39.6 0 0 1-.64 1.207Zm1.002-.398c.18.422.326.833.459 1.243-.41.097-.846.17-1.304.23.145-.23.301-.471.434-.725.145-.253.278-.507.41-.748ZM12 16.332c-.29-.314-.568-.652-.833-1.002.278.012.555.024.833.024.278 0 .555-.012.833-.024-.266.35-.543.688-.833 1.002ZM9.754 14.52c-.459-.06-.893-.133-1.304-.23.133-.398.278-.82.46-1.243.132.241.265.495.41.736.144.266.29.495.434.737Zm-.845-3.08a14.235 14.235 0 0 1-.459-1.243c.41-.096.845-.169 1.304-.23-.145.23-.302.472-.434.725-.145.254-.278.507-.41.749ZM12 8.17c.29.314.567.652.833 1.002A19.194 19.194 0 0 0 12 9.148c-.278 0-.555.012-.833.024.265-.35.543-.688.833-1.002Zm2.68 2.535-.434-.724c.458.06.893.133 1.304.23a15.84 15.84 0 0 1-.46 1.243c-.132-.254-.265-.507-.41-.749ZM8.1 8.75c-.205-1.267-.036-2.16.459-2.45a.816.816 0 0 1 .423-.11c.724 0 1.63.592 2.535 1.486-.423.459-.845.99-1.256 1.57-.7.06-1.364.168-1.992.301-.072-.277-.12-.543-.169-.797Zm-2.982 3.502c0-.568.688-1.171 1.896-1.618.241-.097.507-.181.772-.254.193.604.435 1.244.725 1.884-.29.64-.544 1.268-.725 1.871-1.666-.483-2.668-1.207-2.668-1.883Zm3.441 5.952c-.495-.29-.664-1.183-.459-2.45.036-.254.097-.52.17-.798.627.145 1.291.242 1.991.302.41.58.833 1.099 1.256 1.57-.893.881-1.799 1.485-2.535 1.485a.815.815 0 0 1-.423-.109Zm7.34-2.45c.206 1.267.037 2.16-.458 2.45a.815.815 0 0 1-.423.109c-.724 0-1.63-.592-2.535-1.485.422-.46.845-.99 1.256-1.57.7-.06 1.364-.169 1.992-.302.072.278.12.544.169.797Zm1.087-1.884a7.23 7.23 0 0 1-.772.253 17.615 17.615 0 0 0-.725-1.883c.29-.64.544-1.268.725-1.872 1.666.483 2.668 1.208 2.668 1.884 0 .567-.7 1.17-1.896 1.618Z" fill="#fff"/></svg>