<svg width="24" height="24" fill="none" xmlns="http://www.w3.org/2000/svg"><circle cx="12" cy="12" r="12" fill="#1B1B1B"/><path d="M16.71 8.075c.478.108.913.353 1.249.702.185.189.345.398.479.625 0 .025-.862.594-1.387.913-.02.012-.096-.069-.18-.192a1.118 1.118 0 0 0-.397-.394 1.15 1.15 0 0 0-.54-.157c-.606-.04-.995.27-.992.78a.702.702 0 0 0 .086.365c.133.27.38.431 1.156.76 1.428.6 2.04.996 2.42 1.56.424.624.518 1.633.23 2.379-.318.811-1.1 1.363-2.206 1.545a6.25 6.25 0 0 1-1.52-.015 3.699 3.699 0 0 1-2.03-1.035c-.184-.199-.541-.715-.519-.753.058-.042.12-.08.184-.114l.739-.4.573-.324.12.173c.201.283.458.524.756.709.638.328 1.51.283 1.94-.097a.834.834 0 0 0 .11-1.08c-.159-.217-.478-.4-1.37-.78-1.03-.434-1.473-.703-1.879-1.13a2.556 2.556 0 0 1-.547-.976 3.818 3.818 0 0 1-.035-1.249c.212-.972.957-1.651 2.046-1.853a5.165 5.165 0 0 1 1.514.041v-.003Zm-4.682.818v.799h-2.59v7.216H7.6V9.69H5.003v-.78a7.509 7.509 0 0 1 .02-.807c.012-.014 1.596-.014 3.51-.014h3.485l.01.804Z" fill="#fff"/></svg>