<svg width="24" height="24" fill="none" xmlns="http://www.w3.org/2000/svg"><circle cx="12" cy="12" r="12" fill="#1B1B1B"/><path fill-rule="evenodd" clip-rule="evenodd" d="M8.242 7.454c.421.354.58.327 1.37.273l7.463-.463c.158 0 .026-.163-.026-.19l-1.24-.926c-.237-.19-.553-.408-1.16-.354l-7.225.545c-.264.027-.316.163-.211.272l1.029.843Zm.448 1.797v8.11c0 .437.21.6.685.573l8.2-.49c.476-.027.528-.327.528-.681V8.706c0-.353-.131-.544-.422-.517l-8.57.517c-.316.028-.421.191-.421.545Zm8.095.435c.053.245 0 .49-.238.518l-.395.081v5.988c-.343.19-.659.3-.923.3-.422 0-.527-.137-.843-.545L11.8 11.837v4.055l.818.19s0 .49-.66.49l-1.82.11c-.052-.11 0-.381.185-.436l.475-.136v-5.362l-.659-.054c-.053-.246.079-.6.448-.627l1.952-.136 2.69 4.247V10.42l-.686-.081c-.053-.3.158-.517.421-.544l1.82-.11ZM6.817 5.604l7.516-.572c.923-.082 1.16-.027 1.74.408l2.4 1.742c.395.3.527.381.527.708v9.554c0 .598-.211.953-.95 1.007l-8.727.544c-.554.027-.818-.054-1.108-.435l-1.767-2.368C6.132 15.756 6 15.43 6 15.048V6.556c0-.49.211-.898.817-.952Z" fill="#fff"/></svg>