<svg width="24" height="24" fill="none" xmlns="http://www.w3.org/2000/svg"><circle cx="12" cy="12" r="12" fill="#1B1B1B"/><path d="M17.485 6H11.5c0 1.5 1.208 2.714 2.7 2.714h1.1v1.072c0 1.5 1.208 2.714 2.7 2.714V6.518A.52.52 0 0 0 17.485 6Z" fill="#fff"/><path d="M14.235 9.25H8.25c0 1.5 1.208 2.714 2.7 2.714h1.1v1.072c0 1.5 1.208 2.714 2.7 2.714V9.768a.52.52 0 0 0-.515-.518Z" fill="#fff"/><path d="M10.985 12.5H5c0 1.5 1.207 2.714 2.7 2.714h1.1v1.071C8.8 17.787 10.008 19 11.5 19v-5.982a.52.52 0 0 0-.515-.518Z" fill="#fff"/></svg>