<svg width="24" height="24" fill="none" xmlns="http://www.w3.org/2000/svg"><circle cx="12" cy="12" r="12" fill="#1B1B1B"/><path d="m18.736 11.376-6.111-6.112a.901.901 0 0 0-1.275 0l-1.269 1.27 1.61 1.61a1.07 1.07 0 0 1 1.356 1.364l1.551 1.553a1.072 1.072 0 1 1-.643.605l-1.446-1.448v3.809a1.073 1.073 0 1 1-1.233 1.72c-.42-.42-.454-1.099-.035-1.518.104-.103.206-.181.317-.234v-3.843a1.135 1.135 0 0 1-.317-.235 1.067 1.067 0 0 1-.214-1.173L9.45 7.157l-4.186 4.191a.902.902 0 0 0 .002 1.276l6.112 6.112a.902.902 0 0 0 1.276 0l6.083-6.084a.902.902 0 0 0 0-1.276Z" fill="#fff"/></svg>