<svg width="24" height="24" fill="none" xmlns="http://www.w3.org/2000/svg"><circle cx="12" cy="12" r="12" fill="#1B1B1B"/><path d="M9.977 19.11a2.348 2.348 0 0 0 2.351-2.352v-2.352H9.977a2.348 2.348 0 0 0-2.352 2.352 2.348 2.348 0 0 0 2.352 2.351Zm-2.352-7.055a2.348 2.348 0 0 1 2.352-2.352h2.351v4.703H9.977a2.348 2.348 0 0 1-2.352-2.351Zm0-4.703A2.348 2.348 0 0 1 9.977 5h2.351v4.703H9.977a2.348 2.348 0 0 1-2.352-2.351ZM12.328 5h2.352a2.348 2.348 0 0 1 2.351 2.352 2.348 2.348 0 0 1-2.351 2.351h-2.352V5Zm4.703 7.055a2.348 2.348 0 0 1-2.351 2.351 2.348 2.348 0 0 1-2.352-2.351 2.348 2.348 0 0 1 2.352-2.352 2.348 2.348 0 0 1 2.351 2.352Z" fill="#fff"/></svg>