<svg width="24" height="24" fill="none" xmlns="http://www.w3.org/2000/svg"><circle cx="12" cy="12" r="12" fill="#1B1B1B"/><path d="M18.942 13.585c-.155-.976-.788-1.796-2.663-2.56-.651-.301-1.377-.517-1.594-1.013-.077-.288-.087-.451-.038-.626.14-.567.813-.744 1.347-.581.343.116.669.382.865.807.918-.598.916-.594 1.558-1.005-.235-.365-.36-.534-.514-.69-.552-.62-1.305-.94-2.508-.916l-.627.082c-.6.152-1.173.47-1.508.894-1.007 1.15-.72 3.16.505 3.987 1.208.911 2.981 1.118 3.208 1.97.22 1.043-.763 1.38-1.74 1.261-.72-.15-1.12-.518-1.553-1.187-.796.463-.796.463-1.616.937.195.427.399.62.724.99 1.542 1.571 5.398 1.494 6.09-.884.028-.082.214-.627.064-1.466Zm-7.968-6.458h-1.99L8.976 12.3c0 1.1.057 2.109-.121 2.418-.291.608-1.046.532-1.39.415-.35-.173-.528-.42-.734-.767-.056-.1-.099-.177-.113-.183L5 15.178c.269.555.665 1.037 1.173 1.35.758.458 1.778.598 2.843.352.694-.203 1.293-.624 1.606-1.264.453-.84.356-1.857.352-2.98.01-1.835 0-3.669 0-5.509Z" fill="#fff"/></svg>