<svg width="24" height="24" fill="none" xmlns="http://www.w3.org/2000/svg"><circle cx="12" cy="12" r="12" fill="#1B1B1B"/><path d="m6.451 14.373-.88.32-.047 2.6 3.047-1.105c-1.046-.348-1.809-.962-2.12-1.815Z" fill="#fff"/><path d="M6.92 11.96 4 12.968l1.638 1.786.842-.291c-.297-.774-.114-1.648.44-2.503Z" fill="#fff"/><path d="M11.849 8.229c-3.679 1.333-6.05 4.084-5.297 6.144l13.321-4.828c-.754-2.06-4.346-2.65-8.024-1.316Z" fill="#fff"/><path d="M14.563 15.916c3.678-1.382 6.054-4.22 5.296-6.369L6.54 14.55c.758 2.15 4.346 2.748 8.024 1.366Z" fill="#fff"/><path d="M19.934 9.547 6.54 14.437c.262.722 1.262 1.079 2.665 1.079 1.369 0 3.12-.339 4.946-1.005 3.7-1.35 6.301-3.537 5.783-4.964ZM17.207 8.404c-1.368 0-3.12.339-4.946 1.005-3.699 1.35-6.3 3.536-5.783 4.964l13.395-4.89c-.263-.723-1.263-1.079-2.666-1.079Z" fill="#fff"/><path d="M16.453 17.409c-.394 0-.975-.356-1.728-1.058-.89-.83-1.909-2.047-2.87-3.425-.962-1.378-1.752-2.755-2.225-3.88-.516-1.224-.59-1.977-.22-2.237a.494.494 0 0 1 .292-.086c.301 0 .889.224 1.975 1.293l.024.023-.004.033-.02.231-.012.151-.106-.107C10.389 7.168 9.874 7.04 9.707 7.04a.194.194 0 0 0-.113.029c-.161.113-.172.666.328 1.853.465 1.103 1.243 2.46 2.192 3.82.95 1.361 1.953 2.56 2.828 3.375.943.88 1.368.975 1.507.975.047 0 .086-.01.115-.031.17-.12.17-.711-.387-1.99l-.026-.058.056-.03c.055-.03.11-.06.16-.09l.068-.038.03.07c.396.906.765 2.057.28 2.397a.497.497 0 0 1-.292.086Zm0-.14v.07-.07Z" fill="#fff"/><path d="m14.623 15.778-.005.069c-.094 1.157-.34 2.547-.982 2.604l-.04.001c-.436 0-.848-.625-1.225-1.857-.358-1.166-.635-2.73-.78-4.407-.147-1.676-.145-3.265.005-4.476.164-1.319.475-2.008.925-2.047a.415.415 0 0 1 .041-.002c.317 0 .793.358 1.281 2.027l-.318.06c-.163-.556-.34-1.01-.517-1.322-.163-.288-.322-.447-.446-.447h-.012c-.196.018-.48.491-.639 1.77-.147 1.19-.15 2.755-.005 4.41.144 1.654.417 3.196.768 4.34.157.513.329.936.498 1.223.156.264.307.41.425.41h.011c.187-.017.54-.51.688-2.245l.327-.111Z" fill="#fff"/></svg>