<svg width="24" height="24" fill="none" xmlns="http://www.w3.org/2000/svg"><circle cx="12" cy="12" r="12" fill="#1B1B1B"/><path d="M8.108 13.555c0 .855-.698 1.554-1.554 1.554A1.558 1.558 0 0 1 5 13.555C5 12.699 5.699 12 6.554 12h1.554v1.555Zm.783 0c0-.856.699-1.555 1.554-1.555.856 0 1.555.699 1.555 1.555v3.89c0 .856-.699 1.555-1.555 1.555a1.558 1.558 0 0 1-1.554-1.555v-3.89ZM10.445 8.108a1.557 1.557 0 0 1-1.554-1.554C8.891 5.7 9.59 5 10.445 5 11.301 5 12 5.699 12 6.554v1.554h-1.555Zm0 .783c.856 0 1.555.699 1.555 1.554 0 .856-.699 1.555-1.555 1.555h-3.89A1.558 1.558 0 0 1 5 10.445c0-.855.699-1.554 1.554-1.554h3.891ZM15.892 10.445c0-.855.698-1.554 1.553-1.554.856 0 1.555.699 1.555 1.554 0 .856-.699 1.555-1.555 1.555h-1.553v-1.555Zm-.783 0c0 .856-.699 1.555-1.554 1.555A1.558 1.558 0 0 1 12 10.445v-3.89C12 5.698 12.699 5 13.555 5c.855 0 1.554.699 1.554 1.554v3.891ZM13.555 15.892c.855 0 1.554.698 1.554 1.553 0 .856-.699 1.555-1.554 1.555A1.558 1.558 0 0 1 12 17.445v-1.553h1.555Zm0-.783A1.558 1.558 0 0 1 12 13.555c0-.856.699-1.555 1.555-1.555h3.89c.856 0 1.555.699 1.555 1.555 0 .855-.699 1.554-1.555 1.554h-3.89Z" fill="#fff"/></svg>