<svg width="24" height="24" fill="none" xmlns="http://www.w3.org/2000/svg"><circle cx="12" cy="12" r="12" fill="#1B1B1B"/><path fill-rule="evenodd" clip-rule="evenodd" d="M11.488 5.43c-.05-.157-.144-.165-.28-.165-.73.005-1.46.017-2.19 0-.231-.005-.331.065-.402.292-1.029 3.266-2.068 6.53-3.104 9.793-.168.532-.332 1.066-.512 1.644.683 0 1.306-.01 1.93.006.211.005.3-.065.357-.267.267-.93.556-1.853.82-2.783.063-.22.163-.279.381-.276 1.038.012 2.076.012 3.113 0 .202-.002.284.063.341.252.285.935.587 1.865.871 2.8.06.194.133.268.354.252.306-.02.614-.03.921-.028h1.077l-.005-.078c-1.224-3.816-2.45-7.626-3.672-11.443Zm-2.91 6.545c.477-1.658.95-3.28 1.418-4.89l1.468 4.89H8.577Zm7.034 4.975h2.345V8.422h-2.345v8.528ZM16.8 5c-.695 0-1.208.5-1.203 1.17.004.671.497 1.15 1.186 1.151.715.001 1.22-.477 1.216-1.15-.005-.69-.499-1.172-1.199-1.171Z" fill="#fff"/></svg>