<svg width="24" height="24" fill="none" xmlns="http://www.w3.org/2000/svg"><circle cx="12" cy="12" r="12" fill="#1B1B1B"/><path fill-rule="evenodd" clip-rule="evenodd" d="M10.822 6.198c-1.474-.339-2.957-.172-4.439-.023-.314.031-.374.163-.373.437C6.02 9.906 6 13.2 6 16.494v.178h1.989v-3.869c1.105.082 2.116.062 3.104-.283 1.584-.554 2.376-1.757 2.29-3.513-.069-1.419-.977-2.445-2.561-2.809Zm-.432 4.84c-.706.337-1.456.33-2.21.23-.06-.009-.15-.112-.15-.17-.01-1.155-.007-2.31-.007-3.496.692-.106 1.348-.158 2.002.004.812.2 1.283.718 1.37 1.498.097.856-.275 1.585-1.005 1.934Zm7.359 1.54c-.325-.175-.681-.293-1.018-.446-.312-.141-.626-.28-.923-.45-.206-.117-.3-.322-.3-.565 0-.41.286-.74.774-.78.365-.028.743.008 1.104.075.304.055.592.194.902.302l.39-1.358a4.788 4.788 0 0 0-2.272-.457c-.665.022-1.285.188-1.846.563-1.048.7-1.56 2.557.011 3.556.4.253.86.412 1.293.615.27.126.55.234.805.384.32.189.43.497.374.853a.714.714 0 0 1-.627.623c-.37.057-.766.094-1.13.03-.517-.088-1.017-.277-1.542-.428-.094.345-.183.726-.305 1.096-.067.203-.028.304.175.383 1.241.483 2.505.583 3.775.155.95-.319 1.528-.98 1.603-1.986.074-.98-.377-1.7-1.243-2.166Z" fill="#fff"/></svg>