<svg xmlns="http://www.w3.org/2000/svg" width="156" height="42" fill="none"><path fill="#1B1B1B" d="M11.2 27.71c-2.66 0-4.79-.5-6.39-1.5-1.6-1.02-2.4-2.57-2.4-4.65 0-1.1.19-1.94.57-2.52.38-.58.94-.87 1.68-.87.54 0 .98.14 1.32.42.34.28.51.64.51 1.08 0 .4-.03.75-.09 1.05 0 .08-.02.22-.06.42-.02.2-.03.41-.03.63 0 .9.45 1.57 1.35 2.01.92.44 2.2.66 3.84.66 1.7 0 3.03-.3 3.99-.9.96-.62 1.44-1.48 1.44-2.58 0-.68-.22-1.26-.66-1.74-.44-.5-.99-.91-1.65-1.23-.66-.34-1.59-.75-2.79-1.23-1.54-.6-2.8-1.17-3.78-1.71a8.104 8.104 0 0 1-2.49-2.19c-.68-.94-1.02-2.1-1.02-3.48 0-1.44.38-2.72 1.14-3.84.78-1.12 1.89-1.99 3.33-2.61 1.46-.62 3.17-.93 5.13-.93 1.46 0 2.8.22 4.02.66 1.22.42 2.19 1.07 2.91 1.95.74.88 1.11 1.96 1.11 3.24 0 1.26-.19 2.21-.57 2.85-.38.64-.94.96-1.68.96-.52 0-.96-.16-1.32-.48-.34-.32-.51-.7-.51-1.14 0-.38.03-.73.09-1.05.06-.6.09-.98.09-1.14 0-.84-.41-1.48-1.23-1.92-.82-.44-1.84-.66-3.06-.66-1.72 0-3.04.32-3.96.96-.9.62-1.35 1.5-1.35 2.64 0 .76.23 1.41.69 1.95.48.54 1.07.99 1.77 1.35.7.36 1.68.79 2.94 1.29 1.52.62 2.74 1.18 3.66 1.68.92.5 1.7 1.18 2.34 2.04.66.86.99 1.92.99 3.18 0 2.36-.9 4.18-2.7 5.46-1.78 1.26-4.17 1.89-7.17 1.89ZM26.545 27.62c-.9 0-1.64-.41-2.22-1.23-.56-.84-.84-1.88-.84-3.12 0-1.5.1-2.87.3-4.11.2-1.26.53-2.59.99-3.99.2-.6.48-1.03.84-1.29s.93-.39 1.71-.39c.44 0 .74.07.9.21.18.14.27.35.27.63 0 .16-.11.7-.33 1.62-.2.74-.36 1.41-.48 2.01-.4 2.1-.6 3.5-.6 4.2 0 .42.05.72.15.9.1.16.26.24.48.24.3 0 .67-.3 1.11-.9.46-.6.94-1.51 1.44-2.73.52-1.22 1.02-2.72 1.5-4.5.16-.6.4-1.03.72-1.29.34-.26.84-.39 1.5-.39.46 0 .78.06.96.18.18.1.27.3.27.6 0 .5-.25 1.87-.75 4.11-.56 2.56-.84 4.14-.84 4.74 0 .38.08.68.24.9.16.2.37.3.63.3.4 0 .87-.24 1.41-.72.56-.5 1.3-1.3 2.22-2.4.24-.28.51-.42.81-.42.26 0 .46.12.6.36.16.24.24.57.24.99 0 .8-.19 1.42-.57 1.86-.86 1.06-1.79 1.93-2.79 2.61-.98.68-2.1 1.02-3.36 1.02-.96 0-1.67-.37-2.13-1.11-.44-.74-.66-1.78-.66-3.12-.34 1.36-.85 2.41-1.53 3.15-.68.72-1.41 1.08-2.19 1.08Z"/><path fill="#1B1B1B" d="M52.702 20.84c.26 0 .46.13.6.39.16.24.24.55.24.93 0 .46-.07.82-.21 1.08-.14.26-.36.49-.66.69l-5.76 3.87c-.76 4.14-1.76 7.39-3 9.75-1.22 2.38-2.78 3.57-4.68 3.57-1.02 0-1.85-.32-2.49-.96-.64-.62-.96-1.44-.96-2.46 0-.94.21-1.9.63-2.88.44-.98 1.24-2.11 2.4-3.39 1.18-1.26 2.84-2.71 4.98-4.35l.09-.69c.14-.74.3-1.8.48-3.18-.4 1.44-.96 2.54-1.68 3.3-.72.74-1.48 1.11-2.28 1.11-.9 0-1.64-.41-2.22-1.23-.56-.84-.84-1.88-.84-3.12 0-1.5.1-2.87.3-4.11.2-1.26.53-2.59.99-3.99.2-.6.48-1.03.84-1.29s.93-.39 1.71-.39c.44 0 .74.07.9.21.18.14.27.35.27.63 0 .16-.11.7-.33 1.62-.2.74-.36 1.41-.48 2.01-.16.82-.3 1.61-.42 2.37-.12.74-.18 1.35-.18 1.83 0 .76.21 1.14.63 1.14.3 0 .67-.3 1.11-.9.46-.6.94-1.51 1.44-2.73.52-1.22 1.02-2.72 1.5-4.5.16-.6.4-1.03.72-1.29.34-.26.84-.39 1.5-.39.46 0 .78.06.96.18.18.12.27.32.27.6 0 .5-.26 2.22-.78 5.16l-.78 4.83a86.35 86.35 0 0 1 4.5-3.18c.26-.16.49-.24.69-.24Zm-13.14 17.37c.5 0 1.06-.58 1.68-1.74.62-1.16 1.24-3.09 1.86-5.79-1.54 1.3-2.66 2.48-3.36 3.54-.68 1.08-1.02 2.02-1.02 2.82 0 .34.06.62.18.84.14.22.36.33.66.33Z"/><path fill="#1B1B1B" d="M65.078 20.78c.26 0 .46.12.6.36.16.24.24.57.24.99 0 .8-.19 1.42-.57 1.86-.74.9-1.79 1.73-3.15 2.49a8.614 8.614 0 0 1-4.32 1.14c-2.1 0-3.73-.57-4.89-1.71-1.16-1.14-1.74-2.7-1.74-4.68 0-1.38.29-2.66.87-3.84.58-1.2 1.38-2.15 2.4-2.85 1.04-.7 2.21-1.05 3.51-1.05 1.16 0 2.09.35 2.79 1.05.7.68 1.05 1.61 1.05 2.79 0 1.38-.5 2.57-1.5 3.57-.98.98-2.65 1.76-5.01 2.34.5.92 1.45 1.38 2.85 1.38.9 0 1.92-.31 3.06-.93 1.16-.64 2.16-1.47 3-2.49.24-.28.51-.42.81-.42Zm-7.56-4.35c-.74 0-1.37.43-1.89 1.29-.5.86-.75 1.9-.75 3.12v.06c1.18-.28 2.11-.7 2.79-1.26.68-.56 1.02-1.21 1.02-1.95 0-.38-.11-.68-.33-.9-.2-.24-.48-.36-.84-.36Z"/><path fill="#1B1B1B" d="M78.775 18.26c.26 0 .46.13.6.39.14.26.21.59.21.99 0 .96-.29 1.53-.87 1.71-1.2.42-2.52.66-3.96.72-.38 1.68-1.13 3.03-2.25 4.05-1.12 1-2.39 1.5-3.81 1.5-1.2 0-2.23-.29-3.09-.87a5.566 5.566 0 0 1-1.92-2.31c-.44-.96-.66-2-.66-3.12 0-1.52.29-2.87.87-4.05.58-1.2 1.38-2.13 2.4-2.79a5.98 5.98 0 0 1 3.39-1.02c1.52 0 2.74.53 3.66 1.59.94 1.04 1.49 2.33 1.65 3.87.94-.06 2.06-.26 3.36-.6.16-.04.3-.06.42-.06Zm-9.84 6.18c.64 0 1.19-.26 1.65-.78.48-.52.8-1.27.96-2.25-.62-.42-1.1-.97-1.44-1.65-.32-.68-.48-1.4-.48-2.16 0-.32.03-.64.09-.96h-.15c-.8 0-1.47.39-2.01 1.17-.52.76-.78 1.84-.78 3.24 0 1.1.21 1.94.63 2.52.44.58.95.87 1.53.87Z"/><path fill="#1B1B1B" d="M79.14 27.62c-.76 0-1.3-.4-1.62-1.2-.3-.8-.45-2.08-.45-3.84 0-2.6.37-5.07 1.11-7.41.18-.58.47-1 .87-1.26.42-.28 1-.42 1.74-.42.4 0 .68.05.84.15.16.1.24.29.24.57 0 .32-.15 1.04-.45 2.16-.2.8-.36 1.5-.48 2.1-.12.6-.22 1.34-.3 2.22.66-1.72 1.4-3.12 2.22-4.2.82-1.08 1.62-1.85 2.4-2.31.8-.46 1.53-.69 2.19-.69 1.3 0 1.95.65 1.95 1.95 0 .78-.22 2.19-.66 4.23-.38 1.74-.57 2.89-.57 3.45 0 .8.29 1.2.87 1.2.4 0 .87-.24 1.41-.72.56-.5 1.3-1.3 2.22-2.4.24-.28.51-.42.81-.42.26 0 .46.12.6.36.16.24.24.57.24.99 0 .8-.19 1.42-.57 1.86-.86 1.06-1.79 1.93-2.79 2.61-.98.68-2.1 1.02-3.36 1.02-1.02 0-1.79-.29-2.31-.87-.52-.6-.78-1.46-.78-2.58 0-.56.14-1.56.42-3 .26-1.26.39-2.13.39-2.61 0-.32-.11-.48-.33-.48-.26 0-.63.34-1.11 1.02-.46.66-.94 1.54-1.44 2.64-.48 1.1-.87 2.26-1.17 3.48-.22.94-.48 1.58-.78 1.92-.28.32-.73.48-1.35.48Z"/><path fill="#1B1B1B" d="M121.593 20.78c.26 0 .46.12.6.36.16.24.24.57.24.99 0 .78-.19 1.4-.57 1.86-.96 1.16-1.93 2.06-2.91 2.7-.98.62-2.14.93-3.48.93-1.48 0-2.69-.43-3.63-1.29-.94-.88-1.82-2.24-2.64-4.08-.6-1.32-1.1-2.3-1.5-2.94-.38-.66-.76-1.12-1.14-1.38-.38-.28-.86-.45-1.44-.51l-.33 2.22c-.42 2.86-1.24 4.92-2.46 6.18-1.2 1.26-2.86 1.89-4.98 1.89-1.38 0-2.61-.33-3.69-.99-1.06-.68-1.8-1.54-2.22-2.58a3.2 3.2 0 0 1-.21-1.17c0-.6.14-1.12.42-1.56.28-.44.64-.66 1.08-.66.26 0 .48.07.66.21.18.12.35.34.51.66.62 1.16 1.16 1.97 1.62 2.43.48.46 1.07.69 1.77.69.8 0 1.48-.36 2.04-1.08.58-.74.99-1.87 1.23-3.39l.42-2.85h-.48c-.46 0-.82-.13-1.08-.39-.26-.26-.39-.62-.39-1.08 0-.52.13-.93.39-1.23.28-.32.62-.48 1.02-.48h.99c.14-.98.24-1.66.3-2.04l.93-6.75c-.52-.06-1.01-.09-1.47-.09-1.7 0-2.99.3-3.87.9-.88.58-1.32 1.42-1.32 2.52 0 .5.05.91.15 1.23.12.3.27.64.45 1.02.08.16.12.34.12.54 0 .44-.21.83-.63 1.17-.4.32-.85.48-1.35.48-.64 0-1.11-.28-1.41-.84-.6-1.06-.9-2.2-.9-3.42 0-1.26.34-2.41 1.02-3.45.7-1.04 1.75-1.87 3.15-2.49 1.4-.64 3.13-.96 5.19-.96.9 0 1.72.05 2.46.15.76.1 1.59.29 2.49.57.98.3 1.47.86 1.47 1.68 0 1.1-.47 1.65-1.41 1.65l-1.17 8.07c2.34-.24 4.24-1.24 5.7-3 1.48-1.78 2.71-4.19 3.69-7.23.18-.56.48-.99.9-1.29.44-.3.99-.45 1.65-.45.56 0 .99.13 1.29.39.32.24.48.59.48 1.05 0 .14-.04.37-.12.69-1 3.3-2.43 5.92-4.29 7.86-1.86 1.94-3.89 3.23-6.09 3.87.76.18 1.38.45 1.86.81.5.36.92.81 1.26 1.35.34.52.73 1.25 1.17 2.19.62 1.32 1.2 2.26 1.74 2.82.54.54 1.17.81 1.89.81.64 0 1.25-.21 1.83-.63.58-.44 1.31-1.18 2.19-2.22.24-.28.51-.42.81-.42Z"/><path fill="#1B1B1B" d="M123.919 11.51c-.84 0-1.47-.19-1.89-.57-.42-.4-.63-.95-.63-1.65s.27-1.28.81-1.74c.56-.48 1.25-.72 2.07-.72.74 0 1.34.18 1.8.54.46.36.69.87.69 1.53 0 .8-.26 1.44-.78 1.92-.52.46-1.21.69-2.07.69Zm-.24 16.11c-1.3 0-2.25-.46-2.85-1.38-.58-.92-.87-2.14-.87-3.66 0-.9.11-2.05.33-3.45.24-1.42.54-2.74.9-3.96.18-.64.42-1.08.72-1.32s.78-.36 1.44-.36c1.02 0 1.53.34 1.53 1.02 0 .5-.19 1.66-.57 3.48-.48 2.2-.72 3.69-.72 4.47 0 .6.08 1.06.24 1.38.16.32.43.48.81.48.36 0 .81-.25 1.35-.75s1.26-1.29 2.16-2.37c.24-.28.51-.42.81-.42.26 0 .46.12.6.36.16.24.24.57.24.99 0 .8-.19 1.42-.57 1.86-1.98 2.42-3.83 3.63-5.55 3.63Z"/><path fill="#1B1B1B" d="M129.502 27.62c-.76 0-1.3-.4-1.62-1.2-.3-.8-.45-2.08-.45-3.84 0-2.6.37-5.07 1.11-7.41.18-.58.47-1 .87-1.26.42-.28 1-.42 1.74-.42.4 0 .68.05.84.15.16.1.24.29.24.57 0 .32-.15 1.04-.45 2.16-.2.8-.36 1.5-.48 2.1-.12.58-.22 1.31-.3 2.19.54-1.56 1.18-2.88 1.92-3.96.76-1.08 1.53-1.88 2.31-2.4.8-.54 1.55-.81 2.25-.81s1.19.16 1.47.48c.3.32.45.81.45 1.47 0 .64-.19 1.8-.57 3.48-.16.72-.27 1.26-.33 1.62.66-1.68 1.39-3.05 2.19-4.11.82-1.06 1.62-1.81 2.4-2.25.78-.46 1.5-.69 2.16-.69.64 0 1.12.17 1.44.51.34.32.51.8.51 1.44 0 .52-.11 1.5-.33 2.94-.2 1.22-.36 2.38-.48 3.48-.12 1.08-.18 2.29-.18 3.63 0 .76-.16 1.31-.48 1.65-.3.32-.8.48-1.5.48-.66 0-1.14-.17-1.44-.51-.3-.34-.45-.85-.45-1.53 0-.8.14-2.12.42-3.96.24-1.6.36-2.62.36-3.06 0-.32-.11-.48-.33-.48-.26 0-.63.34-1.11 1.02-.48.66-.96 1.54-1.44 2.64s-.87 2.26-1.17 3.48c-.22.96-.48 1.6-.78 1.92-.28.32-.74.48-1.38.48-.66 0-1.16-.31-1.5-.93-.32-.64-.48-1.41-.48-2.31 0-.76.1-1.86.3-3.3.16-1.28.24-2.12.24-2.52 0-.32-.11-.48-.33-.48-.3 0-.68.36-1.14 1.08-.46.72-.91 1.64-1.35 2.76a28.21 28.21 0 0 0-1.02 3.3c-.22.94-.48 1.58-.78 1.92-.28.32-.73.48-1.35.48Z"/><path fill="#4D5DEB" d="M151.414 27.62c-.88 0-1.55-.24-2.01-.72-.44-.48-.66-1.11-.66-1.89 0-.9.25-1.62.75-2.16.52-.54 1.24-.81 2.16-.81.88 0 1.54.22 1.98.66.46.42.69 1.05.69 1.89 0 .92-.26 1.66-.78 2.22-.52.54-1.23.81-2.13.81Z"/></svg>